<svg width="48" height="48" viewBox="0 0 48 48" fill="none" xmlns="http://www.w3.org/2000/svg">
<path d="M31.5001 24C31.5001 25.9891 30.71 27.8968 29.3034 29.3033C27.8969 30.7098 25.9892 31.5 24.0001 31.5C22.011 31.5 20.1033 30.7098 18.6968 29.3033C17.2903 27.8968 16.5001 25.9891 16.5001 24C16.5001 23.5725 16.5451 23.155 16.6226 22.75H14.0001V32.7425C14.0001 33.4375 14.5626 34 15.2576 34H32.7451C33.0782 33.9993 33.3974 33.8666 33.6327 33.6308C33.868 33.395 34.0001 33.0756 34.0001 32.7425V22.75H31.3776C31.4551 23.155 31.5001 23.5725 31.5001 24ZM24.0001 29C24.6569 28.9998 25.3072 28.8703 25.9139 28.6188C26.5206 28.3673 27.0719 27.9988 27.5362 27.5343C28.0005 27.0698 28.3687 26.5183 28.6199 25.9115C28.8711 25.3046 29.0003 24.6543 29.0001 23.9975C29 23.3407 28.8704 22.6904 28.6189 22.0837C28.3675 21.477 27.9989 20.9257 27.5344 20.4614C27.0699 19.9972 26.5185 19.6289 25.9116 19.3777C25.3048 19.1265 24.6544 18.9973 23.9976 18.9975C22.6712 18.9978 21.3993 19.5251 20.4616 20.4632C19.5239 21.4014 18.9973 22.6736 18.9976 24C18.998 25.3264 19.5252 26.5984 20.4633 27.5361C21.4015 28.4737 22.6737 29.0003 24.0001 29ZM30.0001 18.75H32.9976C33.1968 18.75 33.3878 18.6711 33.5288 18.5305C33.6699 18.3899 33.7495 18.1991 33.7501 18V15.0025C33.7501 14.8029 33.6708 14.6115 33.5297 14.4704C33.3886 14.3293 33.1972 14.25 32.9976 14.25H30.0001C29.8005 14.25 29.6091 14.3293 29.468 14.4704C29.3269 14.6115 29.2476 14.8029 29.2476 15.0025V18C29.2501 18.4125 29.5876 18.75 30.0001 18.75ZM24.0001 0C17.6349 0 11.5304 2.52856 7.02956 7.02944C2.52869 11.5303 0.00012207 17.6348 0.00012207 24C0.00012207 30.3652 2.52869 36.4697 7.02956 40.9706C11.5304 45.4714 17.6349 48 24.0001 48C27.1518 48 30.2727 47.3792 33.1845 46.1731C36.0963 44.967 38.7421 43.1992 40.9707 40.9706C43.1993 38.742 44.9671 36.0962 46.1732 33.1844C47.3793 30.2726 48.0001 27.1517 48.0001 24C48.0001 20.8483 47.3793 17.7274 46.1732 14.8156C44.9671 11.9038 43.1993 9.25804 40.9707 7.02944C38.7421 4.80083 36.0963 3.033 33.1845 1.82689C30.2727 0.620778 27.1518 0 24.0001 0ZM36.5001 33.7225C36.5001 35.25 35.2501 36.5 33.7226 36.5H14.2776C12.7501 36.5 11.5001 35.25 11.5001 33.7225V14.2775C11.5001 12.75 12.7501 11.5 14.2776 11.5H33.7226C35.2501 11.5 36.5001 12.75 36.5001 14.2775V33.7225Z" fill="white"/>
</svg>
